# Blender 4.0.2
# www.blender.org
o coin
v -0.083333 0.107547 0.100383
v -0.083333 0.083333 0.028031
v -0.041667 0.107547 0.100383
v -0.041667 0.083333 0.028031
v -0.041667 0.107547 0.100383
v -0.083333 0.083333 0.028031
v -0.083333 0.107547 0.100383
v -0.041667 0.083333 0.028031
v 0.041667 0.333333 0.028031
v 0.083333 0.333333 0.028031
v 0.041667 0.333333 -0.028031
v 0.083333 0.333333 -0.028031
v 0.041667 0.333333 -0.028031
v 0.083333 0.333333 0.028031
v 0.041667 0.333333 0.028031
v 0.083333 0.333333 -0.028031
v 0.041667 0.107547 0.100383
v 0.041667 0.083333 0.028031
v 0.083333 0.107547 0.100383
v 0.083333 0.083333 0.028031
v 0.083333 0.107547 0.100383
v 0.041667 0.083333 0.028031
v 0.041667 0.107547 0.100383
v 0.083333 0.083333 0.028031
v 0.041667 0.333333 -0.028031
v 0.083333 0.333333 -0.028031
v 0.041667 0.309119 -0.100383
v 0.083333 0.309119 -0.100383
v 0.041667 0.309119 -0.100383
v 0.083333 0.333333 -0.028031
v 0.041667 0.333333 -0.028031
v 0.083333 0.309119 -0.100383
v -0.041667 0.180190 0.124500
v -0.083333 0.180190 0.124500
v -0.041667 0.107547 0.100383
v -0.083333 0.107547 0.100383
v -0.041667 0.107547 0.100383
v -0.083333 0.180190 0.124500
v -0.041667 0.180190 0.124500
v -0.083333 0.107547 0.100383
v 0.041667 0.083333 -0.028031
v 0.041667 0.107547 -0.100383
v 0.083333 0.083333 -0.028031
v 0.083333 0.107547 -0.100383
v 0.083333 0.083333 -0.028031
v 0.041667 0.107547 -0.100383
v 0.041667 0.083333 -0.028031
v 0.083333 0.107547 -0.100383
v -0.083333 0.309119 0.100383
v -0.041667 0.309119 0.100383
v -0.083333 0.333333 0.028031
v -0.041667 0.333333 0.028031
v -0.083333 0.333333 0.028031
v -0.041667 0.309119 0.100383
v -0.083333 0.309119 0.100383
v -0.041667 0.333333 0.028031
v 0.083333 0.236477 0.124500
v 0.083333 0.309119 0.100383
v 0.041667 0.236477 0.124500
v 0.041667 0.309119 0.100383
v 0.041667 0.236477 0.124500
v 0.083333 0.309119 0.100383
v 0.083333 0.236477 0.124500
v 0.041667 0.309119 0.100383
v -0.083333 0.083333 -0.028031
v -0.083333 0.107547 -0.100383
v -0.041667 0.083333 -0.028031
v -0.041667 0.107547 -0.100383
v -0.041667 0.083333 -0.028031
v -0.083333 0.107547 -0.100383
v -0.083333 0.083333 -0.028031
v -0.041667 0.107547 -0.100383
v 0.083333 0.309119 -0.100383
v 0.083333 0.236477 -0.124500
v 0.041667 0.309119 -0.100383
v 0.041667 0.236477 -0.124500
v 0.041667 0.309119 -0.100383
v 0.083333 0.236477 -0.124500
v 0.083333 0.309119 -0.100383
v 0.041667 0.236477 -0.124500
v -0.083333 0.083333 0.028031
v -0.083333 0.083333 -0.028031
v -0.041667 0.083333 0.028031
v -0.041667 0.083333 -0.028031
v -0.041667 0.083333 0.028031
v -0.083333 0.083333 -0.028031
v -0.083333 0.083333 0.028031
v -0.041667 0.083333 -0.028031
v -0.041667 0.236477 0.124500
v -0.041667 0.309119 0.100383
v -0.083333 0.236477 0.124500
v -0.083333 0.309119 0.100383
v -0.083333 0.236477 0.124500
v -0.041667 0.309119 0.100383
v -0.041667 0.236477 0.124500
v -0.083333 0.309119 0.100383
v -0.041667 0.180190 0.124500
v -0.041667 0.236477 0.124500
v -0.083333 0.180190 0.124500
v -0.083333 0.236477 0.124500
v -0.083333 0.180190 0.124500
v -0.041667 0.236477 0.124500
v -0.041667 0.180190 0.124500
v -0.083333 0.236477 0.124500
v -0.041667 0.107547 -0.100383
v -0.083333 0.107547 -0.100383
v -0.041667 0.180190 -0.124500
v -0.083333 0.180190 -0.124500
v -0.041667 0.180190 -0.124500
v -0.083333 0.107547 -0.100383
v -0.041667 0.107547 -0.100383
v -0.083333 0.180190 -0.124500
v -0.083333 0.333333 0.028031
v -0.041667 0.333333 0.028031
v -0.083333 0.333333 -0.028031
v -0.041667 0.333333 -0.028031
v -0.083333 0.333333 -0.028031
v -0.041667 0.333333 0.028031
v -0.083333 0.333333 0.028031
v -0.041667 0.333333 -0.028031
v -0.041667 0.236477 -0.124500
v -0.041667 0.180190 -0.124500
v -0.083333 0.236477 -0.124500
v -0.083333 0.180190 -0.124500
v -0.083333 0.236477 -0.124500
v -0.041667 0.180190 -0.124500
v -0.041667 0.236477 -0.124500
v -0.083333 0.180190 -0.124500
v 0.041667 0.333333 -0.028031
v 0.041667 0.309119 -0.100383
v 0.041667 0.333333 0.028031
v 0.041667 0.309119 0.100383
v 0.041667 0.270833 0.028031
v 0.041667 0.236477 0.124500
v 0.041667 0.180190 0.124500
v 0.041667 0.270833 -0.028031
v 0.041667 0.236477 -0.124500
v 0.041667 0.180190 -0.124500
v 0.041667 0.145833 -0.028031
v 0.041667 0.145833 0.028031
v 0.041667 0.107547 -0.100383
v 0.041667 0.107547 0.100383
v 0.041667 0.083333 0.028031
v 0.041667 0.083333 -0.028031
v 0.041667 0.333333 0.028031
v 0.041667 0.309119 -0.100383
v 0.041667 0.333333 -0.028031
v 0.041667 0.309119 0.100383
v 0.041667 0.270833 0.028031
v 0.041667 0.236477 0.124500
v 0.041667 0.180190 0.124500
v 0.041667 0.270833 -0.028031
v 0.041667 0.236477 -0.124500
v 0.041667 0.180190 -0.124500
v 0.041667 0.145833 -0.028031
v 0.041667 0.145833 0.028031
v 0.041667 0.107547 -0.100383
v 0.041667 0.107547 0.100383
v 0.041667 0.083333 0.028031
v 0.041667 0.083333 -0.028031
v 0.041667 0.309119 0.100383
v 0.083333 0.309119 0.100383
v 0.041667 0.333333 0.028031
v 0.083333 0.333333 0.028031
v 0.041667 0.333333 0.028031
v 0.083333 0.309119 0.100383
v 0.041667 0.309119 0.100383
v 0.083333 0.333333 0.028031
v 0.083333 0.180190 0.124500
v 0.083333 0.236477 0.124500
v 0.041667 0.180190 0.124500
v 0.041667 0.236477 0.124500
v 0.041667 0.180190 0.124500
v 0.083333 0.236477 0.124500
v 0.083333 0.180190 0.124500
v 0.041667 0.236477 0.124500
v 0.083333 0.180190 0.124500
v 0.041667 0.180190 0.124500
v 0.083333 0.107547 0.100383
v 0.041667 0.107547 0.100383
v 0.083333 0.107547 0.100383
v 0.041667 0.180190 0.124500
v 0.083333 0.180190 0.124500
v 0.041667 0.107547 0.100383
v 0.083333 0.236477 -0.124500
v 0.083333 0.180190 -0.124500
v 0.041667 0.236477 -0.124500
v 0.041667 0.180190 -0.124500
v 0.041667 0.236477 -0.124500
v 0.083333 0.180190 -0.124500
v 0.083333 0.236477 -0.124500
v 0.041667 0.180190 -0.124500
v -0.041667 0.083333 0.028031
v -0.041667 0.083333 -0.028031
v -0.041667 0.107547 0.100383
v -0.041667 0.107547 -0.100383
v -0.041667 0.145833 0.028031
v -0.041667 0.180190 0.124500
v -0.041667 0.145833 -0.028031
v -0.041667 0.180190 -0.124500
v -0.041667 0.270833 0.028031
v -0.041667 0.236477 0.124500
v -0.041667 0.270833 -0.028031
v -0.041667 0.309119 0.100383
v -0.041667 0.236477 -0.124500
v -0.041667 0.309119 -0.100383
v -0.041667 0.333333 0.028031
v -0.041667 0.333333 -0.028031
v -0.041667 0.107547 0.100383
v -0.041667 0.083333 -0.028031
v -0.041667 0.083333 0.028031
v -0.041667 0.107547 -0.100383
v -0.041667 0.145833 0.028031
v -0.041667 0.180190 0.124500
v -0.041667 0.145833 -0.028031
v -0.041667 0.180190 -0.124500
v -0.041667 0.270833 0.028031
v -0.041667 0.236477 0.124500
v -0.041667 0.270833 -0.028031
v -0.041667 0.309119 0.100383
v -0.041667 0.236477 -0.124500
v -0.041667 0.309119 -0.100383
v -0.041667 0.333333 0.028031
v -0.041667 0.333333 -0.028031
v -0.083333 0.333333 -0.028031
v -0.041667 0.333333 -0.028031
v -0.083333 0.309119 -0.100383
v -0.041667 0.309119 -0.100383
v -0.083333 0.309119 -0.100383
v -0.041667 0.333333 -0.028031
v -0.083333 0.333333 -0.028031
v -0.041667 0.309119 -0.100383
v -0.041667 0.309119 -0.100383
v -0.041667 0.236477 -0.124500
v -0.083333 0.309119 -0.100383
v -0.083333 0.236477 -0.124500
v -0.083333 0.309119 -0.100383
v -0.041667 0.236477 -0.124500
v -0.041667 0.309119 -0.100383
v -0.083333 0.236477 -0.124500
v 0.041667 0.083333 0.028031
v 0.041667 0.083333 -0.028031
v 0.083333 0.083333 0.028031
v 0.083333 0.083333 -0.028031
v 0.083333 0.083333 0.028031
v 0.041667 0.083333 -0.028031
v 0.041667 0.083333 0.028031
v 0.083333 0.083333 -0.028031
v 0.083333 0.107547 -0.100383
v 0.041667 0.107547 -0.100383
v 0.083333 0.180190 -0.124500
v 0.041667 0.180190 -0.124500
v 0.083333 0.180190 -0.124500
v 0.041667 0.107547 -0.100383
v 0.083333 0.107547 -0.100383
v 0.041667 0.180190 -0.124500
v -0.070858 0.241642 0.028031
v -0.070858 0.175025 0.028031
v -0.070858 0.241642 -0.028031
v -0.070858 0.175025 -0.028031
v -0.083333 0.250000 -0.207500
v 0.083333 0.250000 -0.207500
v -0.083333 0.375000 -0.166000
v 0.083333 0.375000 -0.166000
v -0.083333 0.250000 0.207500
v -0.083333 0.166667 0.207500
v -0.083333 0.375000 0.166000
v -0.083333 0.041667 0.166000
v -0.083333 0.236477 0.124500
v -0.083333 0.309119 0.100383
v -0.083333 0.180190 0.124500
v -0.083333 0.416667 0.041500
v -0.083333 0.107547 0.100383
v -0.083333 0.333333 0.028031
v -0.083333 0.000000 0.041500
v -0.083333 0.083333 0.028031
v -0.083333 0.416667 -0.041500
v -0.083333 0.333333 -0.028031
v -0.083333 0.309119 -0.100383
v -0.083333 0.000000 -0.041500
v -0.083333 0.083333 -0.028031
v -0.083333 0.107547 -0.100383
v -0.083333 0.375000 -0.166000
v -0.083333 0.041667 -0.166000
v -0.083333 0.236477 -0.124500
v -0.083333 0.180190 -0.124500
v -0.083333 0.250000 -0.207500
v -0.083333 0.166667 -0.207500
v -0.083333 0.041667 -0.166000
v -0.083333 0.000000 -0.041500
v 0.083333 0.041667 -0.166000
v 0.083333 0.000000 -0.041500
v -0.083333 0.000000 0.041500
v 0.083333 0.000000 0.041500
v -0.083333 0.000000 -0.041500
v 0.083333 0.000000 -0.041500
v -0.083333 0.041667 0.166000
v -0.083333 0.166667 0.207500
v 0.083333 0.041667 0.166000
v 0.083333 0.166667 0.207500
v -0.083333 0.375000 -0.166000
v 0.083333 0.375000 -0.166000
v -0.083333 0.416667 -0.041500
v 0.083333 0.416667 -0.041500
v -0.083333 0.416667 -0.041500
v 0.083333 0.416667 -0.041500
v -0.083333 0.416667 0.041500
v 0.083333 0.416667 0.041500
v -0.083333 0.375000 0.166000
v -0.083333 0.416667 0.041500
v 0.083333 0.375000 0.166000
v 0.083333 0.416667 0.041500
v -0.083333 0.250000 0.207500
v -0.083333 0.375000 0.166000
v 0.083333 0.250000 0.207500
v 0.083333 0.375000 0.166000
v -0.083333 0.166667 0.207500
v -0.083333 0.250000 0.207500
v 0.083333 0.166667 0.207500
v 0.083333 0.250000 0.207500
v -0.083333 0.000000 0.041500
v -0.083333 0.041667 0.166000
v 0.083333 0.000000 0.041500
v 0.083333 0.041667 0.166000
v 0.083333 0.166667 0.207500
v 0.083333 0.250000 0.207500
v 0.083333 0.041667 0.166000
v 0.083333 0.375000 0.166000
v 0.083333 0.180190 0.124500
v 0.083333 0.107547 0.100383
v 0.083333 0.236477 0.124500
v 0.083333 0.000000 0.041500
v 0.083333 0.309119 0.100383
v 0.083333 0.083333 0.028031
v 0.083333 0.416667 0.041500
v 0.083333 0.333333 0.028031
v 0.083333 0.000000 -0.041500
v 0.083333 0.083333 -0.028031
v 0.083333 0.107547 -0.100383
v 0.083333 0.416667 -0.041500
v 0.083333 0.333333 -0.028031
v 0.083333 0.309119 -0.100383
v 0.083333 0.041667 -0.166000
v 0.083333 0.375000 -0.166000
v 0.083333 0.180190 -0.124500
v 0.083333 0.236477 -0.124500
v 0.083333 0.166667 -0.207500
v 0.083333 0.250000 -0.207500
v -0.083333 0.166667 -0.207500
v 0.083333 0.166667 -0.207500
v -0.083333 0.250000 -0.207500
v 0.083333 0.250000 -0.207500
v -0.083333 0.041667 -0.166000
v 0.083333 0.041667 -0.166000
v -0.083333 0.166667 -0.207500
v 0.083333 0.166667 -0.207500
v -0.041667 0.145833 0.028031
v -0.070858 0.175025 0.028031
v -0.041667 0.270833 0.028031
v -0.070858 0.241642 0.028031
v 0.041667 0.145833 0.028031
v 0.070858 0.175025 0.028031
v 0.041667 0.145833 -0.028031
v 0.070858 0.175025 -0.028031
v 0.041667 0.145833 0.028031
v 0.041667 0.270833 0.028031
v 0.070858 0.175025 0.028031
v 0.070858 0.241642 0.028031
v -0.070858 0.175025 -0.028031
v -0.070858 0.175025 0.028031
v -0.041667 0.145833 -0.028031
v -0.041667 0.145833 0.028031
v -0.041667 0.145833 -0.028031
v -0.041667 0.270833 -0.028031
v -0.070858 0.175025 -0.028031
v -0.070858 0.241642 -0.028031
v -0.070858 0.241642 0.028031
v -0.070858 0.241642 -0.028031
v -0.041667 0.270833 0.028031
v -0.041667 0.270833 -0.028031
v 0.041667 0.145833 -0.028031
v 0.070858 0.175025 -0.028031
v 0.041667 0.270833 -0.028031
v 0.070858 0.241642 -0.028031
v 0.041667 0.270833 -0.028031
v 0.070858 0.241642 -0.028031
v 0.041667 0.270833 0.028031
v 0.070858 0.241642 0.028031
v 0.070858 0.175025 0.028031
v 0.070858 0.241642 0.028031
v 0.070858 0.175025 -0.028031
v 0.070858 0.241642 -0.028031
vn -0.0000 0.7062 -0.7080
vn -0.0000 0.9870 -0.1608
vn -0.0000 -0.7062 0.7080
vn -0.0000 -0.9870 0.1608
vn -0.0000 -0.9870 -0.1608
vn -0.0000 0.9870 0.1608
vn -0.0000 0.7063 -0.7079
vn -0.0000 0.1596 -0.9872
vn -0.0000 -0.1596 0.9872
vn -0.0000 -0.7063 0.7079
vn -0.0000 0.7062 0.7080
vn -0.0000 -0.7062 -0.7080
vn -0.0000 -0.1596 -0.9872
vn -0.0000 -0.7063 -0.7079
vn -0.0000 0.1596 0.9872
vn -0.0000 0.7063 0.7079
vn 1.0000 -0.0000 -0.0000
vn -1.0000 -0.0000 -0.0000
vn -0.9239 0.3827 -0.0000
vn -0.9239 -0.3827 -0.0000
vn -0.0000 0.7057 -0.7085
vn -0.0000 -0.7057 -0.7085
vn -0.0000 -0.7057 0.7085
vn -0.0000 0.7057 0.7085
vn 0.0001 -0.1596 -0.9872
vn -0.0000 -0.0000 1.0000
vn 0.7071 -0.7071 -0.0000
vn 0.9239 -0.3827 -0.0000
vn -0.7071 -0.7071 -0.0000
vn -0.0000 -0.0000 -1.0000
vn -0.7071 0.7071 -0.0000
vn 0.7071 0.7071 -0.0000
vn 0.9239 0.3827 -0.0000
vt 0.093750 0.284686
vt 0.093750 0.275000
vt 0.093750 0.375000
vt 0.093750 0.365314
vt 0.093750 0.313743
vt 0.093750 0.336257
vt 0.093750 0.350000
vt 0.093750 0.300000
vt 0.093750 0.382994
vt 0.093750 0.367006
vt 0.093750 0.415000
vt 0.093750 0.385000
vt 0.093750 0.365000
vt 0.093750 0.335000
vt 0.093750 0.381754
vt 0.093750 0.399189
vt 0.093750 0.368246
vt 0.093750 0.425000
vt 0.093750 0.350811
vt 0.093750 0.405000
vt 0.093750 0.325000
vt 0.093750 0.345000
vt 0.093750 0.390000
vt 0.093750 0.360000
s 1
f 3/1/1 2/2/2 1/1/1
f 2/2/2 3/1/1 4/2/2
f 7/1/3 6/2/4 5/1/3
f 8/2/4 5/1/3 6/2/4
f 11/3/4 10/3/5 9/3/5
f 10/3/5 11/3/4 12/3/4
f 15/3/6 14/3/6 13/3/2
f 16/3/2 13/3/2 14/3/6
f 19/1/1 18/2/2 17/1/1
f 18/2/2 19/1/1 20/2/2
f 23/1/3 22/2/4 21/1/3
f 24/2/4 21/1/3 22/2/4
f 27/4/3 26/3/4 25/3/4
f 26/3/4 27/4/3 28/4/3
f 31/3/2 30/3/2 29/4/1
f 32/4/1 29/4/1 30/3/2
f 35/1/7 34/5/8 33/5/8
f 34/5/8 35/1/7 36/1/7
f 39/5/9 38/5/9 37/1/10
f 40/1/10 37/1/10 38/5/9
f 43/2/6 42/1/11 41/2/6
f 42/1/11 43/2/6 44/1/11
f 47/2/5 46/1/12 45/2/5
f 48/1/12 45/2/5 46/1/12
f 51/3/5 50/4/12 49/4/12
f 50/4/12 51/3/5 52/3/5
f 55/4/11 54/4/11 53/3/6
f 56/3/6 53/3/6 54/4/11
f 59/6/13 58/4/14 57/6/13
f 58/4/14 59/6/13 60/4/14
f 63/6/15 62/4/16 61/6/15
f 64/4/16 61/6/15 62/4/16
f 67/2/6 66/1/11 65/2/6
f 66/1/11 67/2/6 68/1/11
f 71/2/5 70/1/12 69/2/5
f 72/1/12 69/2/5 70/1/12
f 75/4/10 74/6/9 73/4/10
f 74/6/9 75/4/10 76/6/9
f 79/4/7 78/6/8 77/4/7
f 80/6/8 77/4/7 78/6/8
f 83/2/2 82/2/6 81/2/2
f 82/2/6 83/2/2 84/2/6
f 87/2/4 86/2/5 85/2/4
f 88/2/5 85/2/4 86/2/5
f 91/6/13 90/4/14 89/6/13
f 90/4/14 91/6/13 92/4/14
f 95/6/15 94/4/16 93/6/15
f 96/4/16 93/6/15 94/4/16
f 99/5/8 98/6/13 97/5/8
f 98/6/13 99/5/8 100/6/13
f 103/5/9 102/6/15 101/5/9
f 104/6/15 101/5/9 102/6/15
f 107/5/15 106/1/16 105/1/16
f 106/1/16 107/5/15 108/5/15
f 111/1/14 110/1/14 109/5/13
f 112/5/13 109/5/13 110/1/14
f 115/3/4 114/3/5 113/3/5
f 114/3/5 115/3/4 116/3/4
f 119/3/6 118/3/6 117/3/2
f 120/3/2 117/3/2 118/3/6
f 123/6/9 122/5/15 121/6/9
f 122/5/15 123/6/9 124/5/15
f 127/6/8 126/5/13 125/6/8
f 128/5/13 125/6/8 126/5/13
s 0
f 131/3/17 130/4/17 129/3/17
f 132/4/17 130/4/17 131/3/17
f 133/7/17 130/4/17 132/4/17
f 134/6/17 133/7/17 132/4/17
f 135/5/17 133/7/17 134/6/17
f 136/7/17 130/4/17 133/7/17
f 136/7/17 137/6/17 130/4/17
f 136/7/17 138/5/17 137/6/17
f 139/8/17 138/5/17 136/7/17
f 135/5/17 140/8/17 133/7/17
f 138/5/17 139/8/17 141/1/17
f 140/8/17 141/1/17 139/8/17
f 142/1/17 140/8/17 135/5/17
f 142/1/17 141/1/17 140/8/17
f 143/2/17 141/1/17 142/1/17
f 141/1/17 143/2/17 144/2/17
f 147/3/18 146/4/18 145/3/18
f 145/3/18 146/4/18 148/4/18
f 148/4/18 146/4/18 149/7/18
f 148/4/18 149/7/18 150/6/18
f 150/6/18 149/7/18 151/5/18
f 149/7/18 146/4/18 152/7/18
f 146/4/18 153/6/18 152/7/18
f 153/6/18 154/5/18 152/7/18
f 152/7/18 154/5/18 155/8/18
f 149/7/18 156/8/18 151/5/18
f 157/1/18 155/8/18 154/5/18
f 155/8/18 157/1/18 156/8/18
f 151/5/18 156/8/18 158/1/18
f 156/8/18 157/1/18 158/1/18
f 158/1/18 157/1/18 159/2/18
f 160/2/18 159/2/18 157/1/18
s 1
f 163/3/5 162/4/12 161/4/12
f 162/4/12 163/3/5 164/3/5
f 167/4/11 166/4/11 165/3/6
f 168/3/6 165/3/6 166/4/11
f 171/5/8 170/6/13 169/5/8
f 170/6/13 171/5/8 172/6/13
f 175/5/9 174/6/15 173/5/9
f 176/6/15 173/5/9 174/6/15
f 179/1/7 178/5/8 177/5/8
f 178/5/8 179/1/7 180/1/7
f 183/5/9 182/5/9 181/1/10
f 184/1/10 181/1/10 182/5/9
f 187/6/9 186/5/15 185/6/9
f 186/5/15 187/6/9 188/5/15
f 191/6/8 190/5/13 189/6/8
f 192/5/13 189/6/8 190/5/13
s 0
f 195/1/18 194/2/18 193/2/18
f 194/2/18 195/1/18 196/1/18
f 196/1/18 195/1/18 197/8/18
f 197/8/18 195/1/18 198/5/18
f 199/8/18 196/1/18 197/8/18
f 196/1/18 199/8/18 200/5/18
f 197/8/18 198/5/18 201/7/18
f 201/7/18 198/5/18 202/6/18
f 200/5/18 199/8/18 203/7/18
f 201/7/18 202/6/18 204/4/18
f 201/7/18 204/4/18 203/7/18
f 200/5/18 203/7/18 205/6/18
f 205/6/18 203/7/18 206/4/18
f 206/4/18 203/7/18 204/4/18
f 206/4/18 204/4/18 207/3/18
f 206/4/18 207/3/18 208/3/18
f 211/2/17 210/2/17 209/1/17
f 212/1/17 209/1/17 210/2/17
f 213/8/17 209/1/17 212/1/17
f 214/5/17 209/1/17 213/8/17
f 213/8/17 212/1/17 215/8/17
f 216/5/17 215/8/17 212/1/17
f 217/7/17 214/5/17 213/8/17
f 218/6/17 214/5/17 217/7/17
f 219/7/17 215/8/17 216/5/17
f 220/4/17 218/6/17 217/7/17
f 219/7/17 220/4/17 217/7/17
f 221/6/17 219/7/17 216/5/17
f 222/4/17 219/7/17 221/6/17
f 220/4/17 219/7/17 222/4/17
f 223/3/17 220/4/17 222/4/17
f 224/3/17 223/3/17 222/4/17
s 1
f 227/4/3 226/3/4 225/3/4
f 226/3/4 227/4/3 228/4/3
f 231/3/2 230/3/2 229/4/1
f 232/4/1 229/4/1 230/3/2
f 235/4/10 234/6/9 233/4/10
f 234/6/9 235/4/10 236/6/9
f 239/4/7 238/6/8 237/4/7
f 240/6/8 237/4/7 238/6/8
f 243/2/2 242/2/6 241/2/2
f 242/2/6 243/2/2 244/2/6
f 247/2/4 246/2/5 245/2/4
f 248/2/5 245/2/4 246/2/5
f 251/5/15 250/1/16 249/1/16
f 250/1/16 251/5/15 252/5/15
f 255/1/14 254/1/14 253/5/13
f 256/5/13 253/5/13 254/1/14
f 259/9/19 258/10/20 257/9/19
f 258/10/20 259/9/19 260/10/20
f 263/11/21 262/12/8 261/12/8
f 262/12/8 263/11/21 264/11/21
s 0
f 267/11/18 266/13/18 265/12/18
f 266/13/18 267/11/18 268/14/18
f 268/14/18 267/11/18 269/15/18
f 269/15/18 267/11/18 270/16/18
f 271/17/18 268/14/18 269/15/18
f 270/16/18 267/11/18 272/18/18
f 273/19/18 268/14/18 271/17/18
f 270/16/18 272/18/18 274/20/18
f 268/14/18 273/19/18 275/21/18
f 275/21/18 273/19/18 276/22/18
f 274/20/18 272/18/18 277/18/18
f 274/20/18 277/18/18 278/20/18
f 278/20/18 277/18/18 279/16/18
f 275/21/18 276/22/18 280/21/18
f 280/21/18 276/22/18 281/22/18
f 280/21/18 281/22/18 282/19/18
f 279/16/18 277/18/18 283/11/18
f 280/21/18 282/19/18 284/14/18
f 279/16/18 283/11/18 285/15/18
f 285/15/18 283/11/18 286/17/18
f 284/14/18 282/19/18 286/17/18
f 284/14/18 286/17/18 283/11/18
f 284/14/18 283/11/18 287/12/18
f 284/14/18 287/12/18 288/13/18
s 1
f 291/14/22 290/21/5 289/14/22
f 290/21/5 291/14/22 292/21/5
f 295/21/5 294/21/4 293/21/4
f 294/21/4 295/21/5 296/21/5
f 299/14/23 298/13/9 297/14/23
f 298/13/9 299/14/23 300/13/9
f 303/18/2 302/11/21 301/11/21
f 302/11/21 303/18/2 304/18/2
f 307/18/6 306/18/2 305/18/2
f 306/18/2 307/18/6 308/18/6
f 311/11/24 310/18/6 309/11/24
f 310/18/6 311/11/24 312/18/6
f 315/12/15 314/11/24 313/12/15
f 314/11/24 315/12/15 316/11/24
f 319/13/9 318/12/15 317/13/9
f 318/12/15 319/13/9 320/12/15
f 323/21/4 322/14/23 321/21/4
f 322/14/23 323/21/4 324/14/23
s 0
f 327/14/17 326/12/17 325/13/17
f 326/12/17 327/14/17 328/11/17
f 328/11/17 327/14/17 329/17/17
f 329/17/17 327/14/17 330/19/17
f 331/15/17 328/11/17 329/17/17
f 330/19/17 327/14/17 332/21/17
f 333/16/17 328/11/17 331/15/17
f 330/19/17 332/21/17 334/22/17
f 328/11/17 333/16/17 335/18/17
f 335/18/17 333/16/17 336/20/17
f 334/22/17 332/21/17 337/21/17
f 334/22/17 337/21/17 338/22/17
f 338/22/17 337/21/17 339/19/17
f 335/18/17 336/20/17 340/18/17
f 340/18/17 336/20/17 341/20/17
f 340/18/17 341/20/17 342/16/17
f 339/19/17 337/21/17 343/14/17
f 340/18/17 342/16/17 344/11/17
f 339/19/17 343/14/17 345/17/17
f 345/17/17 343/14/17 346/15/17
f 344/11/17 342/16/17 346/15/17
f 344/11/17 346/15/17 343/14/17
f 344/11/17 343/14/17 347/13/17
f 344/11/17 347/13/17 348/12/17
s 1
f 351/12/8 350/13/13 349/13/13
f 350/13/13 351/12/8 352/12/8
f 355/13/13 354/14/22 353/14/22
f 354/14/22 355/13/13 356/13/25
s 0
f 359/23/26 358/10/26 357/24/26
f 358/10/26 359/23/26 360/9/26
s 1
f 363/24/27 362/10/28 361/24/27
f 362/10/28 363/24/27 364/10/28
s 0
f 367/10/26 366/23/26 365/24/26
f 366/23/26 367/10/26 368/9/26
s 1
f 371/24/29 370/10/20 369/10/20
f 370/10/20 371/24/29 372/24/29
s 0
f 375/10/30 374/23/30 373/24/30
f 374/23/30 375/10/30 376/9/30
s 1
f 379/23/31 378/9/19 377/9/19
f 378/9/19 379/23/31 380/23/31
s 0
f 383/23/30 382/10/30 381/24/30
f 382/10/30 383/23/30 384/9/30
s 1
f 387/23/32 386/9/33 385/23/32
f 386/9/33 387/23/32 388/9/33
f 391/10/28 390/9/33 389/10/28
f 390/9/33 391/10/28 392/9/33
