# Blender 4.0.2
# www.blender.org
o cube
v 0.187500 0.062500 0.500000
v 0.187500 0.062500 -0.500000
v 0.187500 0.000000 0.500000
v 0.187500 -0.000000 -0.500000
v -0.187500 0.062500 -0.500000
v -0.187500 0.062500 0.500000
v -0.187500 -0.000000 -0.500000
v -0.187500 0.000000 0.500000
vn -0.0000 -0.0000 -1.0000
vn 1.0000 -0.0000 -0.0000
vn -0.0000 -0.0000 1.0000
vn -1.0000 -0.0000 -0.0000
vn -0.0000 1.0000 -0.0000
vn -0.0000 -1.0000 -0.0000
vt 0.250000 0.734375
vt 0.343750 0.734375
vt 0.343750 0.750000
vt 0.250000 0.750000
vt 0.000000 0.734375
vt 0.000000 0.750000
vt 0.593750 0.734375
vt 0.687500 0.734375
vt 0.687500 0.750000
vt 0.593750 0.750000
vt 0.343750 1.000000
vt 0.250000 1.000000
vt 0.437500 0.750000
vt 0.437500 1.000000
s 0
f 4/1/1 7/2/1 5/3/1 2/4/1
f 3/5/2 4/1/2 2/4/2 1/6/2
f 8/7/3 3/8/3 1/9/3 6/10/3
f 7/2/4 8/7/4 6/10/4 5/3/4
f 6/11/5 1/12/5 2/4/5 5/3/5
f 7/13/6 4/3/6 3/11/6 8/14/6
o cube.001
v -0.125000 0.250000 0.375000
v -0.125000 0.250000 -0.437500
v -0.125000 0.062500 0.375000
v -0.125000 0.062500 -0.437500
v -0.187500 0.250000 -0.437500
v -0.187500 0.250000 0.375000
v -0.187500 0.062500 -0.437500
v -0.187500 0.062500 0.375000
vn -0.0000 -0.0000 -1.0000
vn 1.0000 -0.0000 -0.0000
vn -0.0000 -0.0000 1.0000
vn -1.0000 -0.0000 -0.0000
vn -0.0000 1.0000 -0.0000
vn -0.0000 -1.0000 -0.0000
vt 0.437500 0.437500
vt 0.453125 0.437500
vt 0.453125 0.484375
vt 0.437500 0.484375
vt 0.234375 0.437500
vt 0.234375 0.484375
vt 0.656250 0.437500
vt 0.671875 0.437500
vt 0.671875 0.484375
vt 0.656250 0.484375
vt 0.453125 0.687500
vt 0.437500 0.687500
vt 0.468750 0.484375
vt 0.468750 0.687500
s 0
f 12/15/7 15/16/7 13/17/7 10/18/7
f 11/19/8 12/15/8 10/18/8 9/20/8
f 16/21/9 11/22/9 9/23/9 14/24/9
f 15/16/10 16/21/10 14/24/10 13/17/10
f 14/25/11 9/26/11 10/18/11 13/17/11
f 15/27/12 12/17/12 11/25/12 16/28/12
o cube.002
v 0.187500 0.250000 0.500000
v 0.187500 0.250000 0.375000
v 0.187500 0.062500 0.500000
v 0.187500 0.062500 0.375000
v -0.187500 0.250000 0.375000
v -0.187500 0.250000 0.500000
v -0.187500 0.062500 0.375000
v -0.187500 0.062500 0.500000
vn -0.0000 -0.0000 -1.0000
vn 1.0000 -0.0000 -0.0000
vn -0.0000 -0.0000 1.0000
vn -1.0000 -0.0000 -0.0000
vn -0.0000 1.0000 -0.0000
vn -0.0000 -1.0000 -0.0000
vt 0.031250 0.921875
vt 0.125000 0.921875
vt 0.125000 0.968750
vt 0.031250 0.968750
vt 0.000000 0.921875
vt 0.000000 0.968750
vt 0.156250 0.921875
vt 0.250000 0.921875
vt 0.250000 0.968750
vt 0.156250 0.968750
vt 0.125000 1.000000
vt 0.031250 1.000000
vt 0.218750 0.968750
vt 0.218750 1.000000
s 0
f 20/29/13 23/30/13 21/31/13 18/32/13
f 19/33/14 20/29/14 18/32/14 17/34/14
f 24/35/15 19/36/15 17/37/15 22/38/15
f 23/30/16 24/35/16 22/38/16 21/31/16
f 22/39/17 17/40/17 18/32/17 21/31/17
f 23/41/18 20/31/18 19/39/18 24/42/18
o cube.003
v 0.187500 0.187500 -0.437500
v 0.187500 0.187500 -0.500000
v 0.187500 0.062500 -0.437500
v 0.187500 0.062500 -0.500000
v -0.187500 0.187500 -0.500000
v -0.187500 0.187500 -0.437500
v -0.187500 0.062500 -0.500000
v -0.187500 0.062500 -0.437500
vn -0.0000 -0.0000 -1.0000
vn 1.0000 -0.0000 -0.0000
vn -0.0000 -0.0000 1.0000
vn -1.0000 -0.0000 -0.0000
vn -0.0000 1.0000 -0.0000
vn -0.0000 -1.0000 -0.0000
vt 0.015625 0.875000
vt 0.109375 0.875000
vt 0.109375 0.906250
vt 0.015625 0.906250
vt 0.000000 0.875000
vt 0.000000 0.906250
vt 0.125000 0.875000
vt 0.218750 0.875000
vt 0.218750 0.906250
vt 0.125000 0.906250
vt 0.109375 0.921875
vt 0.015625 0.921875
vt 0.203125 0.906250
vt 0.203125 0.921875
s 0
f 28/43/19 31/44/19 29/45/19 26/46/19
f 27/47/20 28/43/20 26/46/20 25/48/20
f 32/49/21 27/50/21 25/51/21 30/52/21
f 31/44/22 32/49/22 30/52/22 29/45/22
f 30/53/23 25/54/23 26/46/23 29/45/23
f 31/55/24 28/45/24 27/53/24 32/56/24
o cube.004
v 0.187500 0.250000 0.375000
v 0.187500 0.250000 -0.437500
v 0.187500 0.062500 0.375000
v 0.187500 0.062500 -0.437500
v 0.125000 0.250000 -0.437500
v 0.125000 0.250000 0.375000
v 0.125000 0.062500 -0.437500
v 0.125000 0.062500 0.375000
vn -0.0000 -0.0000 -1.0000
vn 1.0000 -0.0000 -0.0000
vn -0.0000 -0.0000 1.0000
vn -1.0000 -0.0000 -0.0000
vn -0.0000 1.0000 -0.0000
vn -0.0000 -1.0000 -0.0000
vt 0.203125 0.484375
vt 0.218750 0.484375
vt 0.218750 0.531250
vt 0.203125 0.531250
vt 0.000000 0.484375
vt 0.000000 0.531250
vt 0.421875 0.484375
vt 0.437500 0.484375
vt 0.437500 0.531250
vt 0.421875 0.531250
vt 0.218750 0.734375
vt 0.203125 0.734375
vt 0.234375 0.531250
vt 0.234375 0.734375
s 0
f 36/57/25 39/58/25 37/59/25 34/60/25
f 35/61/26 36/57/26 34/60/26 33/62/26
f 40/63/27 35/64/27 33/65/27 38/66/27
f 39/58/28 40/63/28 38/66/28 37/59/28
f 38/67/29 33/68/29 34/60/29 37/59/29
f 39/69/30 36/59/30 35/67/30 40/70/30
o Weapon.015
v -0.066694 0.437662 0.328230
v -0.066694 0.437662 0.199798
v -0.090090 0.437662 0.264014
v -0.002256 0.437662 0.351627
v -0.002256 0.437662 0.176401
v -0.002256 0.437662 0.264014
v 0.062182 0.437662 0.328230
v 0.062182 0.437662 0.199797
v 0.085579 0.437662 0.264014
v -0.066694 0.027201 0.328230
v -0.066694 0.027201 0.199798
v -0.090090 0.027201 0.264014
v -0.002256 0.027201 0.351627
v -0.002256 0.027201 0.176401
v -0.002256 0.027201 0.264014
v 0.062183 0.027201 0.328230
v 0.062182 0.027201 0.199798
v 0.085579 0.027201 0.264014
v -0.066694 0.437662 0.135481
v -0.066694 0.437662 0.007049
v -0.090090 0.437662 0.071265
v -0.002256 0.437662 0.158878
v -0.002256 0.437662 -0.016348
v -0.002256 0.437662 0.071265
v 0.062182 0.437662 0.135481
v 0.062182 0.437662 0.007049
v 0.085579 0.437662 0.071265
v -0.066694 0.027201 0.135481
v -0.066694 0.027201 0.007049
v -0.090090 0.027201 0.071265
v -0.002256 0.027201 0.158878
v -0.002256 0.027201 -0.016348
v -0.002256 0.027201 0.071265
v 0.062183 0.027201 0.135481
v 0.062182 0.027201 0.007049
v 0.085579 0.027201 0.071265
v -0.066694 0.437662 -0.057267
v -0.066694 0.437662 -0.185700
v -0.090090 0.437662 -0.121484
v -0.002256 0.437662 -0.033871
v -0.002256 0.437662 -0.209097
v -0.002256 0.437662 -0.121484
v 0.062182 0.437662 -0.057267
v 0.062182 0.437662 -0.185700
v 0.085579 0.437662 -0.121484
v -0.066694 0.027201 -0.057267
v -0.066694 0.027201 -0.185700
v -0.090090 0.027201 -0.121484
v -0.002256 0.027201 -0.033871
v -0.002256 0.027201 -0.209097
v -0.002256 0.027201 -0.121484
v 0.062183 0.027201 -0.057267
v 0.062182 0.027201 -0.185700
v 0.085579 0.027201 -0.121484
v -0.066694 0.437662 -0.250016
v -0.066694 0.437662 -0.378449
v -0.090090 0.437662 -0.314232
v -0.002256 0.437662 -0.226619
v -0.002256 0.437662 -0.401845
v -0.002256 0.437662 -0.314232
v 0.062182 0.437662 -0.250016
v 0.062182 0.437662 -0.378449
v 0.085579 0.437662 -0.314232
v -0.066694 0.027201 -0.250016
v -0.066694 0.027201 -0.378448
v -0.090090 0.027201 -0.314232
v -0.002256 0.027201 -0.226619
v -0.002256 0.027201 -0.401845
v -0.002256 0.027201 -0.314232
v 0.062183 0.027201 -0.250016
v 0.062182 0.027201 -0.378449
v 0.085579 0.027201 -0.314232
vn -0.5527 0.6232 0.5533
vn -0.0000 0.6378 0.7702
vn -0.0000 1.0000 -0.0000
vn -0.7704 0.6376 -0.0000
vn -0.0000 0.6378 -0.7702
vn -0.5527 0.6232 -0.5533
vn 0.5527 0.6232 0.5533
vn 0.7704 0.6376 -0.0000
vn 0.5527 0.6232 -0.5533
vn -0.5527 -0.6232 0.5533
vn -0.7704 -0.6376 -0.0000
vn -0.0000 -1.0000 -0.0000
vn -0.0000 -0.6378 0.7702
vn -0.5527 -0.6232 -0.5533
vn -0.0000 -0.6378 -0.7702
vn 0.5527 -0.6232 0.5533
vn 0.7704 -0.6376 -0.0000
vn 0.5527 -0.6232 -0.5533
vt 0.040714 0.369035
vt 0.032046 0.369035
vt 0.064506 0.369035
vt 0.096967 0.369035
vt 0.088298 0.369035
vt 0.040714 0.131422
vt 0.064506 0.131422
vt 0.064506 0.131422
vt 0.032046 0.131422
vt 0.088298 0.131422
vt 0.096967 0.131422
s 1
f 41/71/31 44/72/32 46/73/33 43/73/34
f 43/73/34 46/73/33 45/74/35 42/75/36
f 47/71/37 49/73/38 46/73/33 44/72/32
f 49/73/38 48/75/39 45/74/35 46/73/33
f 50/76/40 52/77/41 55/78/42 53/79/43
f 52/77/41 51/80/44 54/81/45 55/78/42
f 56/76/46 53/79/43 55/78/42 58/78/47
f 58/78/47 55/78/42 54/81/45 57/80/48
f 42/75/36 51/80/44 52/77/41 43/73/34
f 43/73/34 52/77/41 50/76/40 41/71/31
f 41/71/31 50/76/40 53/79/43 44/72/32
f 45/74/35 54/81/45 51/80/44 42/75/36
f 49/73/38 58/78/47 57/80/48 48/75/39
f 47/71/37 56/76/46 58/78/47 49/73/38
f 44/72/32 53/79/43 56/76/46 47/71/37
f 48/75/39 57/80/48 54/81/45 45/74/35
f 59/71/31 62/72/32 64/73/33 61/73/34
f 61/73/34 64/73/33 63/74/35 60/75/36
f 65/71/37 67/73/38 64/73/33 62/72/32
f 67/73/38 66/75/39 63/74/35 64/73/33
f 68/76/40 70/77/41 73/78/42 71/79/43
f 70/77/41 69/80/44 72/81/45 73/78/42
f 74/76/46 71/79/43 73/78/42 76/78/47
f 76/78/47 73/78/42 72/81/45 75/80/48
f 60/75/36 69/80/44 70/77/41 61/73/34
f 61/73/34 70/77/41 68/76/40 59/71/31
f 59/71/31 68/76/40 71/79/43 62/72/32
f 63/74/35 72/81/45 69/80/44 60/75/36
f 67/73/38 76/78/47 75/80/48 66/75/39
f 65/71/37 74/76/46 76/78/47 67/73/38
f 62/72/32 71/79/43 74/76/46 65/71/37
f 66/75/39 75/80/48 72/81/45 63/74/35
f 77/71/31 80/72/32 82/73/33 79/73/34
f 79/73/34 82/73/33 81/74/35 78/75/36
f 83/71/37 85/73/38 82/73/33 80/72/32
f 85/73/38 84/75/39 81/74/35 82/73/33
f 86/76/40 88/77/41 91/78/42 89/79/43
f 88/77/41 87/80/44 90/81/45 91/78/42
f 92/76/46 89/79/43 91/78/42 94/78/47
f 94/78/47 91/78/42 90/81/45 93/80/48
f 78/75/36 87/80/44 88/77/41 79/73/34
f 79/73/34 88/77/41 86/76/40 77/71/31
f 77/71/31 86/76/40 89/79/43 80/72/32
f 81/74/35 90/81/45 87/80/44 78/75/36
f 85/73/38 94/78/47 93/80/48 84/75/39
f 83/71/37 92/76/46 94/78/47 85/73/38
f 80/72/32 89/79/43 92/76/46 83/71/37
f 84/75/39 93/80/48 90/81/45 81/74/35
f 95/71/31 98/72/32 100/73/33 97/73/34
f 97/73/34 100/73/33 99/74/35 96/75/36
f 101/71/37 103/73/38 100/73/33 98/72/32
f 103/73/38 102/75/39 99/74/35 100/73/33
f 104/76/40 106/77/41 109/78/42 107/79/43
f 106/77/41 105/80/44 108/81/45 109/78/42
f 110/76/46 107/79/43 109/78/42 112/78/47
f 112/78/47 109/78/42 108/81/45 111/80/48
f 96/75/36 105/80/44 106/77/41 97/73/34
f 97/73/34 106/77/41 104/76/40 95/71/31
f 95/71/31 104/76/40 107/79/43 98/72/32
f 99/74/35 108/81/45 105/80/44 96/75/36
f 103/73/38 112/78/47 111/80/48 102/75/39
f 101/71/37 110/76/46 112/78/47 103/73/38
f 98/72/32 107/79/43 110/76/46 101/71/37
f 102/75/39 111/80/48 108/81/45 99/74/35
