# Made in Blockbench 4.10.1
mtllib can.mtl

o cylinder
v 0 0 0
v 0 0.07625 0
v 0.00996257492658075 0 0.020687500000000004
v 0.00996257492658075 0.07625 0.020687500000000004
v 0.022385702660533986 0 0.005109390551905101
v 0.022385702660533986 0.07625 0.005109390551905101
v 0.017951939705988972 0 -0.01431619419434761
v 0.017951939705988972 0.07625 -0.01431619419434761
v 2.811959609253092e-18 0 -0.022961392715114985
v 2.811959609253092e-18 0.07625 -0.022961392715114985
v -0.01795193970598897 0 -0.014316194194347613
v -0.01795193970598897 0.07625 -0.014316194194347613
v -0.022385702660533986 0 0.005109390551905096
v -0.022385702660533986 0.07625 0.005109390551905096
v -0.009962574926580753 0 0.0206875
v -0.009962574926580753 0.07625 0.0206875
vt 0.6833 0.6748000000000001
vt 0.6335999999999999 0.7371000000000001
vt 0.59375 0.65435
vt 0.25 0.5
vt 0.5 0.5
vt 0.5 0.75
vt 0.25 0.75
vt 0.6335999999999999 0.3253999999999999
vt 0.6833 0.38769999999999993
vt 0.59375 0.40815
vt 0.66555 0.597075
vt 0.6833 0.6748000000000001
vt 0.59375 0.65435
vt 0 0.5
vt 0.25 0.5
vt 0.25 0.75
vt 0 0.75
vt 0.6833 0.38769999999999993
vt 0.66555 0.465425
vt 0.59375 0.40815
vt 0.59375 0.5625
vt 0.66555 0.597075
vt 0.59375 0.65435
vt 0.25 0.25
vt 0.5 0.25
vt 0.5 0.5
vt 0.25 0.5
vt 0.66555 0.465425
vt 0.59375 0.5
vt 0.59375 0.40815
vt 0.52195 0.597075
vt 0.59375 0.5625
vt 0.59375 0.65435
vt 0.5 0.75
vt 0.75 0.75
vt 0.75 1
vt 0.5 1
vt 0.59375 0.5
vt 0.52195 0.465425
vt 0.59375 0.40815
vt 0.5042 0.6748000000000001
vt 0.52195 0.597075
vt 0.59375 0.65435
vt 0.25 0.75
vt 0.5 0.75
vt 0.5 1
vt 0.25 1
vt 0.52195 0.465425
vt 0.5042 0.38769999999999993
vt 0.59375 0.40815
vt 0.5539000000000001 0.7371000000000001
vt 0.5042 0.6748000000000001
vt 0.59375 0.65435
vt 0 0.25
vt 0.25 0.25
vt 0.25 0.5
vt 0 0.5
vt 0.5042 0.38769999999999993
vt 0.5539000000000001 0.3253999999999999
vt 0.59375 0.40815
vt 0.6335999999999999 0.7371000000000001
vt 0.5539000000000001 0.7371000000000001
vt 0.59375 0.65435
vt 0 0.75
vt 0.25 0.75
vt 0.25 1
vt 0 1
vt 0.5539000000000001 0.3253999999999999
vt 0.6335999999999999 0.3253999999999999
vt 0.59375 0.40815
vn 0 -1 0
vn 0.7818314824680299 0 0.6234898018587335
vn 0 1 0
vn 0 -1 0
vn 0.9749279121818236 0 -0.22252093395631417
vn 0 1 0
vn 0 -1 0
vn 0.43388373911755806 0 -0.9009688679024191
vn 0 1 0
vn 0 -1 0
vn -0.43388373911755795 0 -0.9009688679024193
vn 0 1 0
vn 0 -1 0
vn -0.9749279121818237 0 -0.22252093395631442
vn 0 1 0
vn 0 -1 0
vn -0.7818314824680301 0 0.6234898018587334
vn 0 1 0
vn 0 -1 0
vn -1.7412400797593603e-16 0 1
vn 0 1 0
usemtl m_e26f3c47-3536-2f09-1699-c9a1ddf5602d
f 5/1/1 3/2/1 1/3/1
f 3/4/2 5/5/2 6/6/2 4/7/2
f 4/8/3 6/9/3 2/10/3
f 7/11/4 5/12/4 1/13/4
f 5/14/5 7/15/5 8/16/5 6/17/5
f 6/18/6 8/19/6 2/20/6
f 9/21/7 7/22/7 1/23/7
f 7/24/8 9/25/8 10/26/8 8/27/8
f 8/28/9 10/29/9 2/30/9
f 11/31/10 9/32/10 1/33/10
f 9/34/11 11/35/11 12/36/11 10/37/11
f 10/38/12 12/39/12 2/40/12
f 13/41/13 11/42/13 1/43/13
f 11/44/14 13/45/14 14/46/14 12/47/14
f 12/48/15 14/49/15 2/50/15
f 15/51/16 13/52/16 1/53/16
f 13/54/17 15/55/17 16/56/17 14/57/17
f 14/58/18 16/59/18 2/60/18
f 3/61/19 15/62/19 1/63/19
f 15/64/20 3/65/20 4/66/20 16/67/20
f 16/68/21 4/69/21 2/70/21